<svg width="26" height="26" viewBox="0 0 26 26" fill="none" xmlns="http://www.w3.org/2000/svg">
<path d="M10.4987 14.9838L7.625 12.115L5.86 13.885L10.5013 18.5163L18.8837 10.1338L17.1163 8.36627L10.4987 14.9838Z" fill="#09D743"/>
<path d="M13 0.5C6.10752 0.5 0.500015 6.1075 0.500015 13C0.500015 19.8925 6.10752 25.5 13 25.5C19.8925 25.5 25.5 19.8925 25.5 13C25.5 6.1075 19.8925 0.5 13 0.5ZM13 23C7.48627 23 3.00002 18.5138 3.00002 13C3.00002 7.48625 7.48627 3 13 3C18.5138 3 23 7.48625 23 13C23 18.5138 18.5138 23 13 23Z" fill="#09D743"/>
</svg>
