<svg width="23" height="22" viewBox="0 0 23 22" fill="none" xmlns="http://www.w3.org/2000/svg">
<path d="M12.7467 14.6259C12.4976 14.6259 12.2587 14.5586 12.0826 14.4387C11.9065 14.3188 11.8075 14.1562 11.8075 13.9867L11.8075 7.59408C11.8075 7.42454 11.9065 7.26194 12.0826 7.14206C12.2587 7.02218 12.4976 6.95482 12.7467 6.95482C12.9958 6.95483 13.2347 7.02218 13.4109 7.14206C13.587 7.26194 13.686 7.42454 13.686 7.59408L13.686 13.9867C13.686 14.1562 13.587 14.3188 13.4109 14.4387C13.2347 14.5586 12.9958 14.6259 12.7467 14.6259ZM9.92906 13.9867L9.92906 7.59408C9.92906 7.42454 9.8301 7.26194 9.65396 7.14206C9.47782 7.02218 9.23893 6.95482 8.98983 6.95482C8.74073 6.95482 8.50184 7.02218 8.3257 7.14206C8.14956 7.26194 8.05061 7.42454 8.05061 7.59408L8.05061 13.9867C8.05061 14.1562 8.14956 14.3188 8.3257 14.4387C8.50184 14.5586 8.74073 14.6259 8.98983 14.6259C9.23893 14.6259 9.47782 14.5586 9.65396 14.4387C9.8301 14.3188 9.92906 14.1562 9.92906 13.9867ZM13.686 21.0185L10.8683 21.0185C9.87223 21.0177 8.9173 20.7481 8.21299 20.2687C7.50867 19.7893 7.1125 19.1394 7.11138 18.4614L7.11138 18.0462C5.42312 17.522 3.94161 16.5076 2.74304 15.0391C1.37201 13.3593 0.751884 11.5612 0.594564 11.0501C0.541364 10.8788 0.541364 10.7018 0.594564 10.5305C0.751884 10.0195 1.37201 8.22143 2.74304 6.54155C3.94173 5.07317 5.423 4.05883 7.11138 3.53456L7.11138 3.11928C7.1125 2.44135 7.50867 1.7914 8.21299 1.31203C8.9173 0.832662 9.87223 0.563017 10.8683 0.562255L13.686 0.562255C14.682 0.563017 15.6369 0.832662 16.3413 1.31203C17.0456 1.7914 17.4417 2.44135 17.4429 3.11928L17.4429 3.20167C17.6969 3.26644 17.9274 3.36781 18.1186 3.49885C18.3097 3.62989 18.457 3.78749 18.5503 3.96087L21.9657 10.3534C22.1163 10.6357 22.1163 10.945 21.9657 11.2273L18.5504 17.6199C18.4571 17.7932 18.3097 17.9508 18.1186 18.0818C17.9274 18.2129 17.6969 18.3142 17.4429 18.379L17.4429 18.4615C17.4417 19.1394 17.0456 19.7893 16.3413 20.2687C15.6369 20.7481 14.682 21.0177 13.686 21.0185ZM8.98983 3.16347C9.30106 3.13418 9.61487 3.11942 9.92906 3.11928L15.5644 3.11928C15.5639 2.78032 15.3658 2.45534 15.0136 2.21566C14.6615 1.97597 14.184 1.84115 13.686 1.84077L10.8683 1.84077C10.3703 1.84115 9.89279 1.97597 9.54064 2.21566C9.18848 2.45534 8.99039 2.78032 8.98983 3.11928L8.98983 3.16347ZM9.92906 17.1829L16.7849 17.1829L20.2003 10.7904L16.7851 4.3978L9.92906 4.3978C4.55739 4.3978 2.63456 10.1383 2.43298 10.7928C2.63456 11.4425 4.55739 17.1829 9.92906 17.1829ZM13.686 19.74C14.184 19.7396 14.6614 19.6048 15.0136 19.3651C15.3658 19.1254 15.5639 18.8004 15.5644 18.4615L9.92906 18.4615C9.61487 18.4613 9.30106 18.4466 8.98983 18.4173L8.98983 18.4615C8.99039 18.8004 9.18848 19.1254 9.54063 19.3651C9.89279 19.6048 10.3703 19.7396 10.8683 19.74L13.686 19.74Z" fill="white"/>
</svg>
