<svg width="18" height="19" viewBox="0 0 18 19" fill="none" xmlns="http://www.w3.org/2000/svg">
<path d="M12.7501 3.58333C13.1921 3.58333 13.616 3.40774 13.9286 3.09518C14.2412 2.78262 14.4167 2.35869 14.4167 1.91667C14.4167 1.47464 14.2412 1.05072 13.9286 0.738155C13.616 0.425595 13.1921 0.25 12.7501 0.25C12.3081 0.25 11.8841 0.425595 11.5716 0.738155C11.259 1.05072 11.0834 1.47464 11.0834 1.91667C11.0834 2.35869 11.259 2.78262 11.5716 3.09518C11.8841 3.40774 12.3081 3.58333 12.7501 3.58333ZM9.75008 15.1667L10.5834 11.5L12.3334 13.1667V18.1667H14.0001V11.9167L12.2501 10.25L12.7501 7.75C13.321 8.40436 14.0255 8.92886 14.816 9.28821C15.6066 9.64757 16.465 9.83344 17.3334 9.83333V8.16667C15.8667 8.19167 14.5001 7.425 13.7501 6.16667L12.9167 4.83333C12.6167 4.33333 12.0834 4 11.5001 4C11.2501 4 11.0834 4.08333 10.8334 4.08333L6.50008 5.91667V9.83333H8.16675V7L9.66675 6.41667L8.33342 13.1667L4.25008 12.3333L3.91675 14L9.75008 15.1667ZM2.33341 6.5C2.1124 6.5 1.90044 6.4122 1.74416 6.25592C1.58788 6.09964 1.50008 5.88768 1.50008 5.66667C1.50008 5.44565 1.58788 5.23369 1.74416 5.07741C1.90044 4.92113 2.1124 4.83333 2.33341 4.83333H4.83342V6.5H2.33341ZM3.16675 3.16667C2.94573 3.16667 2.73377 3.07887 2.57749 2.92259C2.42121 2.76631 2.33341 2.55435 2.33341 2.33333C2.33341 2.11232 2.42121 1.90036 2.57749 1.74408C2.73377 1.5878 2.94573 1.5 3.16675 1.5H7.33342V3.16667H3.16675ZM1.50008 9.83333C1.27907 9.83333 1.06711 9.74554 0.910826 9.58926C0.754545 9.43297 0.666748 9.22101 0.666748 9C0.666748 8.77899 0.754545 8.56702 0.910826 8.41074C1.06711 8.25446 1.27907 8.16667 1.50008 8.16667H4.83342V9.83333H1.50008Z" fill="#3E3E3E"/>
</svg>
