<svg width="26" height="26" viewBox="0 0 26 26" fill="none" xmlns="http://www.w3.org/2000/svg">
<path d="M24.2437 6.62502C24.2012 6.19752 23.9425 5.82252 23.5587 5.63127L13.5587 0.631272C13.2075 0.455022 12.7925 0.455022 12.44 0.631272L2.43999 5.63127C2.05749 5.82377 1.79874 6.19877 1.75624 6.62502C1.74249 6.75877 0.554989 20.0838 12.4925 25.3925C12.6537 25.465 12.8262 25.5 13 25.5C13.1737 25.5 13.3462 25.465 13.5075 25.3925C25.445 20.0838 24.2575 6.76002 24.2437 6.62502ZM13 22.8713C4.53874 18.7813 4.13874 10.0525 4.20749 7.54377L13 3.14752L21.7862 7.54127C21.8325 10.0275 21.3762 18.8138 13 22.8713Z" fill="white"/>
<path d="M11.75 13.7325L8.88374 10.8663L7.11624 12.6338L11.75 17.2675L18.8837 10.1338L17.1162 8.36627L11.75 13.7325Z" fill="white"/>
<path d="M13 0.5C6.10752 0.5 0.500015 6.1075 0.500015 13C0.500015 19.8925 6.10752 25.5 13 25.5C19.8925 25.5 25.5 19.8925 25.5 13C25.5 6.1075 19.8925 0.5 13 0.5ZM13 23C7.48627 23 3.00002 18.5138 3.00002 13C3.00002 7.48625 7.48627 3 13 3C18.5138 3 23 7.48625 23 13C23 18.5138 18.5138 23 13 23Z" fill="#09D743"/>
<path d="M10.4987 14.9838L7.625 12.115L5.86 13.885L10.5013 18.5163L18.8837 10.1338L17.1163 8.36627L10.4987 14.9838Z" fill="#09D743"/>
</svg>
