<svg width="27" height="32" viewBox="0 0 27 32" fill="none" xmlns="http://www.w3.org/2000/svg">
<path d="M-13 -11C-13 -12.6569 -11.6569 -14 -10 -14H434C435.657 -14 437 -12.6569 437 -11V43C437 44.6569 435.657 46 434 46H-10C-11.6569 46 -13 44.6569 -13 43V-11Z" fill="white"/>
<path d="M0 12.2544H26.3032V19.1169H0V12.2544Z" fill="#1B75BB"/>
<path d="M22.1933 4.90173H4.10988C1.38626 4.90173 0 7.31586 0 10.2937V12.2544H26.3032V10.2937C26.3032 7.31586 24.917 4.90173 22.1933 4.90173Z" fill="#E6E7E8"/>
<path d="M0 21.0777C0 24.0555 1.38626 26.4696 4.10988 26.4696H22.1933C24.917 26.4696 26.3032 24.0555 26.3032 21.0777V19.1169H0V21.0777Z" fill="#EC1C24"/>
</svg>
