<svg width="80" height="80" viewBox="0 0 80 80" fill="none" xmlns="http://www.w3.org/2000/svg">
<path d="M69.6774 39.3549C69.6774 55.389 56.6792 68.3872 40.6452 68.3872C24.6111 68.3872 11.6129 55.389 11.6129 39.3549C11.6129 23.3208 24.6111 10.3226 40.6452 10.3226C56.6792 10.3226 69.6774 23.3208 69.6774 39.3549Z" fill="#09D743"/>
<path d="M69.6774 39.3549C69.6774 55.389 56.6792 68.3872 40.6452 68.3872C24.6111 68.3872 11.6129 55.389 11.6129 39.3549C11.6129 23.3208 24.6111 10.3226 40.6452 10.3226C56.6792 10.3226 69.6774 23.3208 69.6774 39.3549Z" fill="#09D743"/>
<path fill-rule="evenodd" clip-rule="evenodd" d="M40 79C61.5391 79 79 61.5391 79 40C79 18.4609 61.5391 1 40 1C18.4609 1 1 18.4609 1 40C1 61.5391 18.4609 79 40 79ZM40 80C62.0914 80 80 62.0914 80 40C80 17.9086 62.0914 0 40 0C17.9086 0 0 17.9086 0 40C0 62.0914 17.9086 80 40 80Z" fill="#09D743"/>
<path fill-rule="evenodd" clip-rule="evenodd" d="M40 79C61.5391 79 79 61.5391 79 40C79 18.4609 61.5391 1 40 1C18.4609 1 1 18.4609 1 40C1 61.5391 18.4609 79 40 79ZM40 80C62.0914 80 80 62.0914 80 40C80 17.9086 62.0914 0 40 0C17.9086 0 0 17.9086 0 40C0 62.0914 17.9086 80 40 80Z" fill="#09D743"/>
<path d="M50.3226 38.7084H52.9032C52.9032 32.0891 47.9058 27.0968 41.2774 27.0968V29.6774C46.5187 29.6774 50.3226 33.4749 50.3226 38.7084Z" fill="white"/>
<path d="M41.2903 34.8388C44.0039 34.8388 45.1613 35.9962 45.1613 38.7097H47.7419C47.7419 34.5484 45.4516 32.2581 41.2903 32.2581V34.8388ZM45.7058 41.862C45.191 41.3936 44.3961 41.4181 43.911 41.9175L40.8232 45.093C40.08 44.951 38.5858 44.4852 37.0477 42.951C35.5097 41.4117 35.0439 39.9136 34.9058 39.1755L38.0787 36.0865C38.5793 35.6013 38.6026 34.8078 38.1342 34.2917L33.3664 29.0491C32.8981 28.5317 32.1019 28.4826 31.5716 28.9368L28.7716 31.3381C28.5484 31.5626 28.4155 31.8594 28.3974 32.1755C28.3781 32.4981 28.009 40.1394 33.9342 46.0672C39.1032 51.2349 45.5781 51.613 47.3613 51.613C47.6219 51.613 47.7819 51.6052 47.8245 51.6026C48.1406 51.5846 48.4374 51.4517 48.6606 51.2272L51.0606 48.4259C51.5161 47.8955 51.4645 47.1007 50.9497 46.631L45.7058 41.862Z" fill="white"/>
</svg>
